<mxfile host="app.diagrams.net" modified="2021-06-20T07:35:16.974Z" agent="5.0 (Windows NT 10.0; Win64; x64) AppleWebKit/537.36 (KHTML, like Gecko) Chrome/91.0.4472.106 Safari/537.36" etag="EsbhtpMx2tPuVQmNbqDz" version="14.8.0" type="github">
  <diagram id="lNwx70YwFImhAdkBiCjS" name="Page-1">
    <mxGraphModel dx="595" dy="325" grid="1" gridSize="10" guides="1" tooltips="1" connect="1" arrows="1" fold="1" page="1" pageScale="1" pageWidth="827" pageHeight="1169" math="0" shadow="0">
      <root>
        <mxCell id="0" />
        <mxCell id="1" parent="0" />
        <mxCell id="bOoDoIh7ptmJdQdkOBES-1" value="Logic&lt;br&gt;" style="ellipse;shape=cloud;whiteSpace=wrap;html=1;" parent="1" vertex="1">
          <mxGeometry x="140" y="50" width="120" height="90" as="geometry" />
        </mxCell>
        <mxCell id="bOoDoIh7ptmJdQdkOBES-2" value="Assign" style="ellipse;shape=cloud;whiteSpace=wrap;html=1;" parent="1" vertex="1">
          <mxGeometry x="414" y="190" width="120" height="80" as="geometry" />
        </mxCell>
        <mxCell id="-i50-3i5kCzuWG5Ihwtd-1" value="&lt;font style=&quot;font-size: 15px&quot;&gt;State&lt;br&gt;-FlipFlop&lt;/font&gt;" style="whiteSpace=wrap;html=1;aspect=fixed;" vertex="1" parent="1">
          <mxGeometry x="165" y="180" width="80" height="80" as="geometry" />
        </mxCell>
        <mxCell id="-i50-3i5kCzuWG5Ihwtd-8" value="" style="line;strokeWidth=1.5;html=1;" vertex="1" parent="1">
          <mxGeometry x="10" y="70" width="150" height="10" as="geometry" />
        </mxCell>
        <mxCell id="-i50-3i5kCzuWG5Ihwtd-9" value="" style="line;strokeWidth=1.5;html=1;" vertex="1" parent="1">
          <mxGeometry x="245" y="180" width="140" height="15" as="geometry" />
        </mxCell>
        <mxCell id="-i50-3i5kCzuWG5Ihwtd-10" value="flick&lt;br&gt;" style="text;html=1;align=center;verticalAlign=middle;resizable=0;points=[];autosize=1;strokeColor=none;" vertex="1" parent="1">
          <mxGeometry x="20" y="60" width="40" height="20" as="geometry" />
        </mxCell>
        <mxCell id="-i50-3i5kCzuWG5Ihwtd-11" value="&lt;font style=&quot;font-size: 15px&quot;&gt;rst_n&lt;/font&gt;" style="text;html=1;align=center;verticalAlign=middle;resizable=0;points=[];autosize=1;strokeColor=none;" vertex="1" parent="1">
          <mxGeometry x="15" y="220" width="50" height="20" as="geometry" />
        </mxCell>
        <mxCell id="-i50-3i5kCzuWG5Ihwtd-12" value="" style="line;strokeWidth=1.5;html=1;" vertex="1" parent="1">
          <mxGeometry x="20" y="230" width="145" height="10" as="geometry" />
        </mxCell>
        <mxCell id="-i50-3i5kCzuWG5Ihwtd-17" value="&lt;font style=&quot;font-size: 15px&quot;&gt;clk&lt;/font&gt;" style="text;html=1;align=center;verticalAlign=middle;resizable=0;points=[];autosize=1;strokeColor=none;" vertex="1" parent="1">
          <mxGeometry x="25" y="185" width="30" height="20" as="geometry" />
        </mxCell>
        <mxCell id="-i50-3i5kCzuWG5Ihwtd-19" value="" style="line;strokeWidth=1.5;html=1;" vertex="1" parent="1">
          <mxGeometry x="20" y="200" width="145" height="10" as="geometry" />
        </mxCell>
        <mxCell id="-i50-3i5kCzuWG5Ihwtd-21" value="&lt;font style=&quot;font-size: 15px&quot;&gt;State[1:0]&lt;/font&gt;" style="text;html=1;align=center;verticalAlign=middle;resizable=0;points=[];autosize=1;strokeColor=none;" vertex="1" parent="1">
          <mxGeometry x="285" y="170" width="80" height="20" as="geometry" />
        </mxCell>
        <mxCell id="-i50-3i5kCzuWG5Ihwtd-22" value="" style="line;strokeWidth=1.5;html=1;" vertex="1" parent="1">
          <mxGeometry x="245" y="210" width="140" height="15" as="geometry" />
        </mxCell>
        <mxCell id="-i50-3i5kCzuWG5Ihwtd-23" value="&lt;font style=&quot;font-size: 15px&quot;&gt;Index[3:0]&lt;/font&gt;" style="text;html=1;align=center;verticalAlign=middle;resizable=0;points=[];autosize=1;strokeColor=none;" vertex="1" parent="1">
          <mxGeometry x="285" y="200" width="80" height="20" as="geometry" />
        </mxCell>
        <mxCell id="-i50-3i5kCzuWG5Ihwtd-24" value="" style="line;strokeWidth=1.5;html=1;" vertex="1" parent="1">
          <mxGeometry x="245" y="240" width="140" height="15" as="geometry" />
        </mxCell>
        <mxCell id="-i50-3i5kCzuWG5Ihwtd-25" value="&lt;font style=&quot;font-size: 15px&quot;&gt;LED[15:0]&lt;/font&gt;" style="text;html=1;align=center;verticalAlign=middle;resizable=0;points=[];autosize=1;strokeColor=none;" vertex="1" parent="1">
          <mxGeometry x="275" y="230" width="80" height="20" as="geometry" />
        </mxCell>
        <mxCell id="-i50-3i5kCzuWG5Ihwtd-26" value="Text" style="text;html=1;align=center;verticalAlign=middle;resizable=0;points=[];autosize=1;strokeColor=none;" vertex="1" parent="1">
          <mxGeometry x="295" y="90" width="40" height="20" as="geometry" />
        </mxCell>
      </root>
    </mxGraphModel>
  </diagram>
</mxfile>
